<?xml version="1.0" encoding="UTF-8"?> <svg xmlns="http://www.w3.org/2000/svg" width="189" height="30" viewBox="0 0 189 30" fill="none"><g clip-path="url(#clip0_3719_49350)"><path d="M69.0061 6.92684C70.2622 6.92684 71.2779 7.18279 72.0531 7.69444C72.8441 8.20635 73.4332 9.03586 73.8211 10.1835C74.2086 11.3309 74.4024 12.8661 74.4024 14.7891V20.0226H70.7041V14.8588C70.7041 13.3855 70.4328 12.1372 69.8899 11.1139C69.3471 10.0748 68.3703 9.55531 66.9592 9.55531C65.951 9.55531 65.1834 9.78785 64.6564 10.2532C64.1292 10.7029 63.7801 11.2999 63.6095 12.0444C63.4391 12.7885 63.3538 13.7034 63.3538 14.7891V20.0226H59.632V14.8588C59.632 13.3546 59.3839 12.0985 58.8876 11.0905C58.4069 10.0672 57.4689 9.55531 56.0731 9.55531C54.8792 9.55531 54.0029 9.81126 53.4447 10.3229C52.9021 10.8192 52.5608 11.4859 52.4214 12.3235C52.2973 13.1452 52.2351 14.3159 52.2351 15.8358V20.0226H48.4902V7.34563H51.5141L52.1886 9.11337C53.4447 7.65568 55.3752 6.92684 57.9805 6.92684C59.1591 6.92684 60.1127 7.15183 60.8416 7.60157C61.586 8.05105 62.1596 8.78771 62.5627 9.81126C63.1056 8.78771 63.8964 8.05105 64.9355 7.60157C65.99 7.15183 67.3468 6.92684 69.0061 6.92684ZM92.4638 13.9749H79.5543C79.6006 14.7191 79.81 15.4092 80.1822 16.0449C80.5544 16.6653 81.0895 17.1694 81.7871 17.557C82.485 17.9446 83.3301 18.1386 84.3225 18.1386C85.1444 18.1386 85.8964 17.9911 86.579 17.6967C87.2612 17.402 87.796 17.0219 88.1839 16.5568C88.5714 16.0761 88.7652 15.572 88.7652 15.0448H92.4638C92.4638 15.9908 92.1381 16.8825 91.4868 17.7198C90.8511 18.5418 89.9129 19.2085 88.6724 19.7201C87.4316 20.232 85.9664 20.4877 84.2762 20.4877C82.741 20.4877 81.322 20.2011 80.0194 19.6272C78.7323 19.0534 77.701 18.2471 76.9258 17.2082C76.1658 16.1537 75.786 14.9519 75.786 13.6027C75.786 12.2381 76.1582 11.0364 76.9024 9.99724C77.6468 8.94274 78.6626 8.13637 79.9497 7.57816C81.2521 7.00435 82.6944 6.71744 84.2762 6.71744C85.9042 6.71744 87.3309 6.99681 88.5561 7.55502C89.781 8.11323 90.7348 8.90398 91.4171 9.92753C92.0994 10.9355 92.4482 12.1219 92.4638 13.4864V13.6027V13.9749ZM84.3225 9.06681C83.0976 9.06681 82.1206 9.33837 81.3917 9.88097C80.6629 10.4082 80.1434 11.1215 79.8334 12.0209H88.5792C88.3621 11.1215 87.9126 10.4082 87.23 9.88097C86.5477 9.33837 85.5785 9.06681 84.3225 9.06681ZM99.3803 7.34563H101.799V10.1835H99.3803V20.0226H95.6586V10.1835H93.1232V7.34563H95.6586V4.60089L99.3803 2.4375V7.34563ZM111.578 6.78742C113.625 6.78742 115.455 7.15964 117.068 7.90383C118.696 8.64828 119.51 9.95849 119.51 11.835V20.0226H116.114L115.765 17.8129C115.517 18.278 115.052 18.6968 114.37 19.069C113.687 19.441 112.873 19.7357 111.927 19.9529C110.981 20.1545 110.012 20.2552 109.02 20.2552C107.826 20.2552 106.57 20.007 105.251 19.511C103.933 18.9991 103.274 17.9058 103.274 16.2312C103.274 14.6494 103.809 13.6027 104.879 13.0911C105.949 12.5638 107.05 12.3 108.182 12.3C110.71 12.3 112.454 12.2847 113.416 12.2535C114.393 12.2072 115.029 12.1219 115.323 11.9978C115.633 11.8581 115.796 11.6256 115.812 11.2999V11.0674C115.796 10.5091 115.362 10.0438 114.509 9.67158C113.656 9.29961 112.672 9.11337 111.555 9.11337C110.33 9.09802 109.291 9.284 108.438 9.67158C107.585 10.0438 107.159 10.6486 107.159 11.4859H103.414C103.414 10.292 103.848 9.34591 104.717 8.64828C105.6 7.95039 106.655 7.4697 107.88 7.20594C109.121 6.92684 110.353 6.78742 111.578 6.78742ZM110.764 17.4176C112.625 17.4176 113.928 17.0297 114.672 16.2543C115.416 15.4792 115.788 14.5719 115.788 13.533C115.029 13.9827 113.68 14.2075 111.741 14.2075C110.594 14.2075 109.694 14.2462 109.043 14.3237C108.407 14.4013 107.934 14.5487 107.624 14.7657C107.314 14.9673 107.151 15.2698 107.136 15.673C107.167 16.2312 107.453 16.6653 107.996 16.9754C108.539 17.2701 109.462 17.4176 110.764 17.4176ZM120.967 13.719C120.967 12.4163 121.339 11.2455 122.083 10.2066C122.828 9.15213 123.843 8.33042 125.13 7.741C126.417 7.15184 127.844 6.85712 129.41 6.85712C131.674 6.85712 133.458 7.34562 134.76 8.32262C136.078 9.284 136.994 10.602 137.505 12.2769H133.76C133.559 11.4705 133.062 10.7883 132.272 10.2298C131.496 9.65623 130.566 9.36932 129.48 9.36932C128.007 9.38467 126.852 9.79565 126.014 10.602C125.177 11.4084 124.758 12.4475 124.758 13.719C124.758 14.4478 124.929 15.1535 125.27 15.8358C125.627 16.5025 126.162 17.0453 126.875 17.4639C127.588 17.8826 128.457 18.0842 129.48 18.0686C130.581 18.0686 131.519 17.7895 132.295 17.2313C133.07 16.6575 133.551 15.9752 133.737 15.1845H137.482C137.342 16.1149 136.893 16.9988 136.133 17.8361C135.373 18.658 134.396 19.3247 133.202 19.8366C132.023 20.3327 130.76 20.5808 129.41 20.5808C127.891 20.5808 126.487 20.2861 125.2 19.6969C123.913 19.0922 122.882 18.2702 122.107 17.2313C121.347 16.1768 120.967 15.006 120.967 13.719ZM142.687 20.0226H138.966V2.80973H142.687V20.0226ZM148.48 2.80973H144.758V5.62444H148.48V2.80973ZM148.48 20.0226H144.758V6.29892H148.48V20.0226ZM159.628 6.92684C161.396 6.92684 162.776 7.53161 163.769 8.74114C164.761 9.93533 165.257 11.9512 165.257 14.7891V20.0226H161.535V14.8588C161.535 13.8662 161.458 12.9979 161.303 12.2535C161.148 11.5093 160.799 10.8811 160.256 10.3695C159.729 9.84222 158.93 9.57872 157.86 9.57872C156.759 9.57872 155.922 9.84222 155.348 10.3695C154.79 10.8811 154.425 11.5171 154.255 12.2769C154.1 13.0367 154.022 13.9284 154.022 14.9519V20.0226H150.301V7.34563H154.022V9.02025C155.247 7.62473 157.116 6.92684 159.628 6.92684ZM170.673 2.80973H166.951V5.62444H170.673V2.80973ZM170.673 20.0226H166.951V6.29892H170.673V20.0226ZM172.145 13.719C172.145 12.4163 172.517 11.2455 173.261 10.2066C174.006 9.15213 175.021 8.33042 176.308 7.741C177.595 7.15184 179.022 6.85712 180.588 6.85712C182.852 6.85712 184.636 7.34562 185.938 8.32262C187.256 9.284 188.171 10.602 188.683 12.2769H184.938C184.736 11.4705 184.24 10.7883 183.449 10.2298C182.674 9.65623 181.744 9.36932 180.658 9.36932C179.185 9.38467 178.03 9.79565 177.192 10.602C176.355 11.4084 175.936 12.4475 175.936 13.719C175.936 14.4478 176.107 15.1535 176.448 15.8358C176.804 16.5025 177.34 17.0453 178.053 17.4639C178.766 17.8826 179.635 18.0842 180.658 18.0686C181.759 18.0686 182.697 17.7895 183.473 17.2313C184.248 16.6575 184.729 15.9752 184.915 15.1845H188.66C188.52 16.1149 188.07 16.9988 187.311 17.8361C186.551 18.658 185.574 19.3247 184.38 19.8366C183.201 20.3327 181.937 20.5808 180.588 20.5808C179.069 20.5808 177.665 20.2861 176.378 19.6969C175.091 19.0922 174.06 18.2702 173.285 17.2313C172.525 16.1768 172.145 15.006 172.145 13.719Z" fill="black"></path><path fill-rule="evenodd" clip-rule="evenodd" d="M30.0384 0.346147C32.4673 -1.49287 35.9519 0.239762 35.9519 3.28624V22.438C35.9519 23.5929 35.4108 24.6813 34.49 25.3784L28.8164 29.6737C26.3874 31.5127 22.9026 29.7801 22.9026 26.7336C22.9026 26.2334 22.3306 25.9491 21.9319 26.2508L17.4108 29.6737C14.9819 31.5127 11.4971 29.7801 11.4971 26.7336C11.4971 26.2334 10.9251 25.9491 10.5266 26.2508L6.00553 29.6737C3.57657 31.5127 0.0917969 29.7801 0.0917969 26.7336V8.1928C0.0917969 6.65291 0.813096 5.20199 2.04084 4.27259L7.22729 0.346147C9.65625 -1.49287 13.141 0.239762 13.141 3.28624C13.141 3.78618 13.713 4.07075 14.1115 3.76875L18.6328 0.346147C21.0618 -1.49287 24.5463 0.239762 24.5463 3.28624C24.5463 3.78644 25.1183 4.07075 25.5171 3.76875L30.0384 0.346147Z" fill="#BB7CFF"></path></g><defs><clipPath id="clip0_3719_49350"><rect width="189" height="30" fill="white"></rect></clipPath></defs></svg> 